# xmcd
#
# Track frame offsets: 
#        150
#        13584
#        28771
#        46674
#        60715
#        74695
#        88023
#        99631
#        115207
#        131622
#        146729
#
# Disc length: 2160 seconds
#
# Revision: 2
# Processed by: cddbd v1.5.2PL0 Copyright (c) Steve Scherf et al.
# Submitted via: ExactAudioCopy v0.95a5
#
DISCID=9b086e0b
DTITLE=Cuby and The Blizzards - Cats Lost
DYEAR=2009
DGENRE=Blues
TTITLE0=Blues Is A Bad Habit
TTITLE1=Deadlines
TTITLE2=I'm In Your Corner
TTITLE3=Low Country Blues
TTITLE4=Baghdad Blues
TTITLE5=Peabody Hotel Room #13
TTITLE6=Devil Made Religion
TTITLE7=Mama Won't You Buy Me A Dream
TTITLE8=Stranger
TTITLE9=My Old Jimny
TTITLE10=More Than I Could Ask For
EXTD=
EXTT0=
EXTT1=
EXTT2=
EXTT3=
EXTT4=
EXTT5=
EXTT6=
EXTT7=
EXTT8=
EXTT9=
EXTT10=
PLAYORDER=
